<svg width="32" height="32" viewBox="0 0 32 32" fill="none" xmlns="http://www.w3.org/2000/svg">
<path d="M6.53659 6.03078C6.63107 6.00284 6.73014 5.9938 6.82812 6.00416C6.9261 6.01452 7.02109 6.04409 7.10764 6.09117C7.19419 6.13826 7.27061 6.20193 7.33255 6.27856C7.39448 6.35519 7.44071 6.44328 7.46859 6.53778L8.01859 8.40078H22.6736C24.5136 8.40078 25.9186 10.1178 25.3886 11.9108L23.7336 17.5108C23.3816 18.7038 22.2626 19.5008 21.0186 19.5008H11.8626C10.6186 19.5008 9.50059 18.7038 9.14759 17.5108L6.03059 6.96278C5.97443 6.77222 5.99617 6.56717 6.09104 6.39263C6.1859 6.21808 6.34614 6.08731 6.53659 6.03078ZM9.99959 23.2508C9.99959 22.654 10.2366 22.0817 10.6586 21.6598C11.0806 21.2378 11.6529 21.0008 12.2496 21.0008C12.8463 21.0008 13.4186 21.2378 13.8406 21.6598C14.2625 22.0817 14.4996 22.654 14.4996 23.2508C14.4996 23.8475 14.2625 24.4198 13.8406 24.8418C13.4186 25.2637 12.8463 25.5008 12.2496 25.5008C11.6529 25.5008 11.0806 25.2637 10.6586 24.8418C10.2366 24.4198 9.99959 23.8475 9.99959 23.2508ZM17.9996 23.2508C17.9996 22.9553 18.0578 22.6627 18.1709 22.3897C18.2839 22.1168 18.4497 21.8687 18.6586 21.6598C18.8675 21.4509 19.1156 21.2851 19.3886 21.172C19.6615 21.059 19.9541 21.0008 20.2496 21.0008C20.5451 21.0008 20.8376 21.059 21.1106 21.172C21.3836 21.2851 21.6316 21.4509 21.8406 21.6598C22.0495 21.8687 22.2152 22.1168 22.3283 22.3897C22.4414 22.6627 22.4996 22.9553 22.4996 23.2508C22.4996 23.8475 22.2625 24.4198 21.8406 24.8418C21.4186 25.2637 20.8463 25.5008 20.2496 25.5008C19.6529 25.5008 19.0806 25.2637 18.6586 24.8418C18.2366 24.4198 17.9996 23.8475 17.9996 23.2508Z" fill="white"/>
</svg>
