<svg width="28" height="28" viewBox="0 0 28 28" fill="none" xmlns="http://www.w3.org/2000/svg">
<path d="M15.7635 13.9728L25.7115 4.05141C25.908 3.82246 26.0108 3.52796 25.9991 3.22676C25.9874 2.92555 25.8622 2.63983 25.6485 2.42669C25.4348 2.21355 25.1483 2.08868 24.8463 2.07705C24.5443 2.06542 24.249 2.16787 24.0195 2.36393L14.0715 12.2853L4.12345 2.35197C3.89749 2.12661 3.59101 2 3.27145 2C2.95189 2 2.64542 2.12661 2.41945 2.35197C2.19349 2.57733 2.06654 2.88298 2.06654 3.20169C2.06654 3.52039 2.19349 3.82605 2.41945 4.05141L12.3795 13.9728L2.41945 23.8942C2.29383 24.0015 2.19181 24.1335 2.11978 24.282C2.04775 24.4305 2.00728 24.5922 2.00089 24.757C1.99451 24.9218 2.02236 25.0862 2.08269 25.2398C2.14302 25.3934 2.23453 25.5328 2.35147 25.6495C2.46842 25.7661 2.60827 25.8574 2.76226 25.9175C2.91625 25.9777 3.08105 26.0055 3.24632 25.9991C3.41158 25.9927 3.57374 25.9524 3.72262 25.8805C3.87149 25.8087 4.00388 25.707 4.11145 25.5817L14.0715 15.6603L24.0195 25.5817C24.249 25.7777 24.5443 25.8802 24.8463 25.8686C25.1483 25.8569 25.4348 25.7321 25.6485 25.5189C25.8622 25.3058 25.9874 25.0201 25.9991 24.7188C26.0108 24.4176 25.908 24.1231 25.7115 23.8942L15.7635 13.9728Z" fill="white"/>
</svg>
