<svg width="48" height="48" viewBox="0 0 48 48" fill="none" xmlns="http://www.w3.org/2000/svg">
<path d="M0 5C0 2.23858 2.23858 0 5 0H43C45.7614 0 48 2.23858 48 5V43C48 45.7614 45.7614 48 43 48H5C2.23858 48 0 45.7614 0 43V5Z" fill="white" fill-opacity="0.4"/>
<path d="M25.7958 34.3925L24.6066 35.6125C24.1031 36.1292 23.2889 36.1292 22.7908 35.6125L12.3776 24.9343C11.8741 24.4177 11.8741 23.5823 12.3776 23.0712L22.7908 12.3875C23.2943 11.8708 24.1085 11.8708 24.6066 12.3875L25.7958 13.6075C26.3047 14.1296 26.2939 14.9815 25.7744 15.4926L19.3197 21.8017H34.7144C35.4268 21.8017 36 22.3897 36 23.1207V24.8793C36 25.6103 35.4268 26.1983 34.7144 26.1983H19.3197L25.7744 32.5074C26.2993 33.0185 26.31 33.8704 25.7958 34.3925Z" fill="white"/>
</svg>
