<svg width="32" height="34" viewBox="0 0 32 34" fill="none" xmlns="http://www.w3.org/2000/svg">
<path d="M0 5C0 2.23858 2.23858 0 5 0H27C29.7614 0 32 2.23858 32 5V29C32 31.7614 29.7614 34 27 34H5C2.23858 34 0 31.7614 0 29V5Z" fill="#F7F7F7"/>
<path d="M17.1756 16.9819L23.8076 10.3676C23.9387 10.215 24.0072 10.0186 23.9994 9.81784C23.9916 9.61704 23.9082 9.42655 23.7657 9.28446C23.6232 9.14237 23.4322 9.05912 23.2309 9.05137C23.0295 9.04361 22.8327 9.11191 22.6796 9.24262L16.0476 15.8569L9.41563 9.23464C9.26499 9.0844 9.06068 9 8.84763 9C8.63459 9 8.43028 9.0844 8.27963 9.23464C8.12899 9.38488 8.04436 9.58865 8.04436 9.80112C8.04436 10.0136 8.12899 10.2174 8.27963 10.3676L14.9196 16.9819L8.27963 23.5961C8.19589 23.6677 8.12787 23.7557 8.07985 23.8547C8.03184 23.9536 8.00485 24.0615 8.0006 24.1713C7.99634 24.2812 8.0149 24.3908 8.05512 24.4932C8.09534 24.5956 8.15635 24.6886 8.23431 24.7663C8.31228 24.8441 8.40552 24.9049 8.50818 24.945C8.61084 24.9851 8.7207 25.0037 8.83088 24.9994C8.94105 24.9952 9.04916 24.9683 9.14841 24.9204C9.24766 24.8725 9.33592 24.8046 9.40763 24.7211L16.0476 18.1069L22.6796 24.7211C22.8327 24.8518 23.0295 24.9201 23.2309 24.9124C23.4322 24.9046 23.6232 24.8214 23.7657 24.6793C23.9082 24.5372 23.9916 24.3467 23.9994 24.1459C24.0072 23.9451 23.9387 23.7488 23.8076 23.5961L17.1756 16.9819Z" fill="black"/>
</svg>
